<?xml version="1.0" encoding="utf-8"?>
<!-- Generator: Adobe Illustrator 24.0.1, SVG Export Plug-In . SVG Version: 6.00 Build 0)  -->
<svg version="1.1" xmlns="http://www.w3.org/2000/svg" xmlns:xlink="http://www.w3.org/1999/xlink" x="0px" y="0px"
	 viewBox="0 0 1920 1080" style="enable-background:new 0 0 1920 1080;" xml:space="preserve">
<style type="text/css">
	.st0{fill:url(#SVGID_1_);}
	.st1{clip-path:url(#SVGID_3_);fill:url(#SVGID_4_);}
	.st2{opacity:0.4;clip-path:url(#SVGID_3_);fill:url(#SVGID_5_);}
	.st3{opacity:0.4;clip-path:url(#SVGID_3_);fill:url(#SVGID_6_);}
	.st4{clip-path:url(#SVGID_8_);}
	.st5{fill:none;stroke:url(#SVGID_9_);stroke-width:1.9416;stroke-miterlimit:10;}
	.st6{fill:none;stroke:url(#SVGID_10_);stroke-width:1.9416;stroke-miterlimit:10;}
	.st7{fill:none;stroke:url(#SVGID_11_);stroke-width:1.9416;stroke-miterlimit:10;}
	.st8{fill:none;stroke:url(#SVGID_12_);stroke-width:1.9416;stroke-miterlimit:10;}
	.st9{fill:none;stroke:url(#SVGID_13_);stroke-width:1.9416;stroke-miterlimit:10;}
	.st10{fill:none;stroke:url(#SVGID_14_);stroke-width:1.9416;stroke-miterlimit:10;}
	.st11{fill:none;stroke:url(#SVGID_15_);stroke-width:1.9416;stroke-miterlimit:10;}
	.st12{fill:none;stroke:url(#SVGID_16_);stroke-width:1.9416;stroke-miterlimit:10;}
	.st13{fill:none;stroke:url(#SVGID_17_);stroke-width:1.9416;stroke-miterlimit:10;}
	.st14{fill:none;stroke:url(#SVGID_18_);stroke-width:1.9416;stroke-miterlimit:10;}
	.st15{fill:none;stroke:url(#SVGID_19_);stroke-width:1.9416;stroke-miterlimit:10;}
	.st16{fill:none;stroke:url(#SVGID_20_);stroke-width:1.9416;stroke-miterlimit:10;}
	.st17{fill:none;stroke:url(#SVGID_21_);stroke-width:1.9416;stroke-miterlimit:10;}
	.st18{fill:none;stroke:url(#SVGID_22_);stroke-width:1.9416;stroke-miterlimit:10;}
	.st19{fill:none;stroke:url(#SVGID_23_);stroke-width:1.9416;stroke-miterlimit:10;}
	.st20{fill:none;stroke:url(#SVGID_24_);stroke-width:1.9416;stroke-miterlimit:10;}
	.st21{fill:none;stroke:url(#SVGID_25_);stroke-width:1.9416;stroke-miterlimit:10;}
	.st22{fill:none;stroke:url(#SVGID_26_);stroke-width:1.9416;stroke-miterlimit:10;}
	.st23{fill:none;stroke:url(#SVGID_27_);stroke-width:1.9416;stroke-miterlimit:10;}
	.st24{fill:none;stroke:url(#SVGID_28_);stroke-width:1.9416;stroke-miterlimit:10;}
	.st25{fill:none;stroke:url(#SVGID_29_);stroke-width:1.9416;stroke-miterlimit:10;}
	.st26{fill:none;stroke:url(#SVGID_30_);stroke-width:1.9416;stroke-miterlimit:10;}
	.st27{fill:none;stroke:url(#SVGID_31_);stroke-width:1.9416;stroke-miterlimit:10;}
	.st28{fill:none;stroke:url(#SVGID_32_);stroke-width:1.9416;stroke-miterlimit:10;}
	.st29{opacity:0.6;fill:url(#SVGID_33_);}
	.st30{opacity:0.6;fill:url(#SVGID_34_);}
	.st31{opacity:0.6;fill:url(#SVGID_35_);}
</style>
<g id="BACKGROUND">
	
		<linearGradient id="SVGID_1_" gradientUnits="userSpaceOnUse" x1="651.2333" y1="336.3463" x2="1792.6057" y2="1089.1628" gradientTransform="matrix(-1 0 0 1 1920 0)">
		<stop  offset="0" style="stop-color:#120D28"/>
		<stop  offset="1" style="stop-color:#2F1E62"/>
	</linearGradient>
	<polygon class="st0" points="0,1080 1920,1080 1920,0 0,0 	"/>
</g>
<g id="OBJECTS">
	<g>
		<defs>
			
				<rect id="SVGID_2_" x="420" y="-420" transform="matrix(-1.836970e-16 1 -1 -1.836970e-16 1499.9998 -420.0002)" width="1080" height="1920"/>
		</defs>
		<clipPath id="SVGID_3_">
			<use xlink:href="#SVGID_2_"  style="overflow:visible;"/>
		</clipPath>
		
			<radialGradient id="SVGID_4_" cx="1083.6411" cy="1531.8269" r="703.3345" gradientTransform="matrix(0 1 -1 0 1793.0721 -921.8366)" gradientUnits="userSpaceOnUse">
			<stop  offset="0" style="stop-color:#00BAD3"/>
			<stop  offset="1" style="stop-color:#28A5C6;stop-opacity:0"/>
		</radialGradient>
		<circle class="st1" cx="261.25" cy="161.8" r="703.33"/>
		
			<radialGradient id="SVGID_5_" cx="961.2126" cy="314.9576" r="594.5522" gradientTransform="matrix(0 1 -1 0 1793.0721 -921.8366)" gradientUnits="userSpaceOnUse">
			<stop  offset="0" style="stop-color:#C65C9F"/>
			<stop  offset="1" style="stop-color:#BB5796;stop-opacity:0"/>
		</radialGradient>
		<circle class="st2" cx="1478.11" cy="39.38" r="594.55"/>
		
			<radialGradient id="SVGID_6_" cx="1839.8008" cy="51.8059" r="487.5334" gradientTransform="matrix(0 1 -1 0 1793.0721 -921.8366)" gradientUnits="userSpaceOnUse">
			<stop  offset="0" style="stop-color:#C65C9F"/>
			<stop  offset="1" style="stop-color:#BB5796;stop-opacity:0"/>
		</radialGradient>
		<circle class="st3" cx="1741.27" cy="917.96" r="487.53"/>
	</g>
	<g>
		<defs>
			<rect id="SVGID_7_" width="1920" height="1080"/>
		</defs>
		<clipPath id="SVGID_8_">
			<use xlink:href="#SVGID_7_"  style="overflow:visible;"/>
		</clipPath>
		<g class="st4">
			
				<radialGradient id="SVGID_9_" cx="906.6913" cy="689.3485" r="711.7285" gradientTransform="matrix(-1.2317 0 0 1.3603 2133.8237 -442.3079)" gradientUnits="userSpaceOnUse">
				<stop  offset="0" style="stop-color:#4D2A6E"/>
				<stop  offset="0.1251" style="stop-color:#41528A"/>
				<stop  offset="0.4002" style="stop-color:#0BB5D0"/>
				<stop  offset="0.7178" style="stop-color:#A85093;stop-opacity:0.8"/>
				<stop  offset="1" style="stop-color:#1CACCC"/>
			</radialGradient>
			<path class="st5" d="M305.36-151.75C39.47-171.17-114.2,87.94-63.52,197.07c46.67,100.49,318.87,521.52,223.76,650.16
				c-261.78,354.06,400.4,191.44,612.57,186.94c302.17-6.41,639.02,163.17,775.91,91.93c103.92-54.07-60.94-91.17-76.74-182.78
				c-12.75-73.94,660.82,62.09,634.5-78.1c-26.33-140.19-456.32-237.91-528.75-378c-53.64-103.75,285.52-111.27,178.87-301.5
				c-41.62-74.25-156.37-141.75-258.89-141.75C1055.02,43.98,890.46-109.02,305.36-151.75z"/>
			
				<radialGradient id="SVGID_10_" cx="906.1238" cy="693.2772" r="704.6973" gradientTransform="matrix(-1.2317 0 0 1.3603 2133.8237 -442.3079)" gradientUnits="userSpaceOnUse">
				<stop  offset="0" style="stop-color:#4D2A6E"/>
				<stop  offset="0.1251" style="stop-color:#41528A"/>
				<stop  offset="0.4002" style="stop-color:#0BB5D0"/>
				<stop  offset="0.7178" style="stop-color:#A85093;stop-opacity:0.8"/>
				<stop  offset="1" style="stop-color:#1CACCC"/>
			</radialGradient>
			<path class="st6" d="M-53.11,194.03C-91.12,84.02,53.66-162.48,315.75-145.35C886.49-106.52,1058.18,38.76,1491.81,38.8
				c101.71,0.01,212.22,66.19,256.66,136.06c120.52,189.47-195.23,210.73-153.52,312.77c30.92,75.64,155.39,145.14,289.66,212.94
				c108.01,54.56,202.45,112.87,209.73,176.81c15.51,136.29-634.08,6.68-627.96,77.85c7.6,88.37,168.2,124.19,65.84,175.2
				c-139.45,69.49-471.46-93.25-766.96-89.46c-212.72,2.72-824.8,158.44-592.28-189.79c30.7-45.98-12-151.25-53.75-263.52
				C91.9,514.12,76.16,443.72,45.58,378.37C9.23,300.7-40.91,229.33-53.11,194.03z"/>
			
				<radialGradient id="SVGID_11_" cx="905.8333" cy="697.1779" r="697.9792" gradientTransform="matrix(-1.2317 0 0 1.3603 2133.8237 -442.3079)" gradientUnits="userSpaceOnUse">
				<stop  offset="0" style="stop-color:#4D2A6E"/>
				<stop  offset="0.1251" style="stop-color:#41528A"/>
				<stop  offset="0.4002" style="stop-color:#0BB5D0"/>
				<stop  offset="0.7178" style="stop-color:#A85093;stop-opacity:0.8"/>
				<stop  offset="1" style="stop-color:#1CACCC"/>
			</radialGradient>
			<path class="st7" d="M-42.69,191C-69.58,81.7,67.89-154.47,326.15-138.94c556.46,33.46,735.2,172.48,1159.75,172.55
				c100.91,0.03,207.65,64.82,254.44,130.37c135.2,189.41-157.88,223.85-128.17,324.04c22.05,74.36,123.01,149.03,262.07,219.11
				c110.02,55.48,205.24,116.93,207.96,182.39c5.47,131.64-620.98,8.2-621.42,77.61c-0.53,84.51,155.68,119.6,54.94,167.62
				c-142.08,67.73-469.18-88.24-758-87C544.44,1048.67-11.15,1200,185.73,855.11c22.31-39.08-39.72-145.8-78.75-260.23
				C81.02,518.74,86.9,451.69,60.51,385.72C29.31,307.74-33.04,230.26-42.69,191z"/>
			
				<radialGradient id="SVGID_12_" cx="907.5226" cy="701.0886" r="692.6065" gradientTransform="matrix(-1.2317 0 0 1.3603 2133.8237 -442.3079)" gradientUnits="userSpaceOnUse">
				<stop  offset="0" style="stop-color:#4D2A6E"/>
				<stop  offset="0.1251" style="stop-color:#41528A"/>
				<stop  offset="0.4002" style="stop-color:#0BB5D0"/>
				<stop  offset="0.7178" style="stop-color:#A85093;stop-opacity:0.8"/>
				<stop  offset="1" style="stop-color:#1CACCC"/>
			</radialGradient>
			<path class="st8" d="M-32.28,187.96C-70.15,85.97,82.08-146.1,336.55-132.54c542.12,28.89,727.97,160.85,1143.45,160.96
				c100.11,0.04,203.53,63.34,252.21,124.68c150.68,189.84-120.52,237.13-102.82,335.31c13.2,73.21,90.64,152.93,234.49,225.28
				c112.02,56.41,208.08,120.33,206.19,187.96c-3.54,126.33-595.49,11.03-614.88,77.37c6.37,80.15,143.1,114.94,44.04,160.05
				c-144.78,65.93-466.92-83.31-749.04-84.53c-213.85-0.92-771.32,109.14-551.7-195.49c7.11-35.31-67.4-140.38-103.75-256.94
				c-24.56-78.77,2.9-142.4-19.3-209.04C49.38,314.84-33.75,232.31-32.28,187.96z"/>
			
				<radialGradient id="SVGID_13_" cx="906.7839" cy="704.9841" r="686.9676" gradientTransform="matrix(-1.2317 0 0 1.3603 2133.8237 -442.3079)" gradientUnits="userSpaceOnUse">
				<stop  offset="0" style="stop-color:#4D2A6E"/>
				<stop  offset="0.1251" style="stop-color:#41528A"/>
				<stop  offset="0.4002" style="stop-color:#0BB5D0"/>
				<stop  offset="0.7178" style="stop-color:#A85093;stop-opacity:0.8"/>
				<stop  offset="1" style="stop-color:#1CACCC"/>
			</radialGradient>
			<path class="st9" d="M-21.87,184.92c-33.6-99.61,118.14-322.64,368.81-311.06c527.77,24.38,720.74,149.22,1127.14,149.37
				c99.3,0.05,199.82,61.73,249.98,118.99c166.96,190.58-83.21,250.61-77.47,346.58c4.32,72.22,58.27,156.82,206.9,231.46
				c114.02,57.33,224.91,125.89,204.41,193.54c12.81,120.39-578.23,13.32-608.34,77.13c3.22,76.34,130.46,110.19,33.14,152.47
				c-147.54,64.09-464.67-78.46-740.08-82.06c-214.44-2.8-736.97,89.81-531.4-198.34c-3.66-29.32-95.03-134.99-128.74-253.66
				c-23.13-81.42,25.86-141.57,7.88-208.93C69.42,321.98-28.78,233.37-21.87,184.92z"/>
			
				<radialGradient id="SVGID_14_" cx="906.2816" cy="708.8677" r="681.2396" gradientTransform="matrix(-1.2317 0 0 1.3603 2133.8237 -442.3079)" gradientUnits="userSpaceOnUse">
				<stop  offset="0" style="stop-color:#4D2A6E"/>
				<stop  offset="0.1251" style="stop-color:#41528A"/>
				<stop  offset="0.4002" style="stop-color:#0BB5D0"/>
				<stop  offset="0.7178" style="stop-color:#A85093;stop-opacity:0.8"/>
				<stop  offset="1" style="stop-color:#1CACCC"/>
			</radialGradient>
			<path class="st10" d="M-11.45,181.89c-29.33-97.23,121.92-311.2,368.8-301.62C870.75-99.82,1070.85,17.86,1468.18,18.04
				c98.5,0.07,196.47,59.94,247.76,113.3c184.02,191.45-46.03,264.27-52.11,357.85c-4.64,71.37,25.9,160.71,179.31,237.63
				c116.03,58.26,231.22,130.33,202.64,199.12c9.43,115.44-560.98,15.61-601.79,76.88c0.08,72.52,117.76,105.37,22.24,144.89
				c-150.36,62.21-462.43-73.7-731.13-79.59c-215.03-4.71-702.63,70.48-511.11-201.19c-14.42-23.33-122.61-129.62-153.74-250.37
				c-21.68-84.09,48.81-140.69,35.05-208.81C89.43,329.18-23.81,234.44-11.45,181.89z"/>
			
				<radialGradient id="SVGID_15_" cx="905.6702" cy="712.7372" r="675.6392" gradientTransform="matrix(-1.2317 0 0 1.3603 2133.8237 -442.3079)" gradientUnits="userSpaceOnUse">
				<stop  offset="0" style="stop-color:#4D2A6E"/>
				<stop  offset="0.1251" style="stop-color:#41528A"/>
				<stop  offset="0.4002" style="stop-color:#0BB5D0"/>
				<stop  offset="0.7178" style="stop-color:#A85093;stop-opacity:0.8"/>
				<stop  offset="1" style="stop-color:#1CACCC"/>
			</radialGradient>
			<path class="st11" d="M-1.04,178.85C-26.11,84,124.64-120.89,367.74-113.33C866.77-97.82,1074.02,12.63,1462.27,12.85
				c97.7,0.08,193.44,57.98,245.53,107.61c201.81,192.27-9.05,278.05-26.76,369.12c-13.74,70.62-6.48,164.6,151.73,243.8
				c118.03,59.18,237.54,134.77,200.87,204.69c6.05,110.49-543.73,17.9-595.25,76.64c-3.06,68.7,105.02,100.47,11.34,137.32
				c-153.24,60.27-460.19-69.02-722.17-77.12c-215.63-6.66-668.29,51.15-490.82-204.04C211.55,853.54,86.58,746.61,57.99,623.8
				c-20.2-86.77,71.71-139.78,62.23-208.69C109.39,336.41-18.85,235.51-1.04,178.85z"/>
			
				<radialGradient id="SVGID_16_" cx="905.2413" cy="716.5901" r="670.308" gradientTransform="matrix(-1.2317 0 0 1.3603 2133.8237 -442.3079)" gradientUnits="userSpaceOnUse">
				<stop  offset="0" style="stop-color:#4D2A6E"/>
				<stop  offset="0.1251" style="stop-color:#41528A"/>
				<stop  offset="0.4002" style="stop-color:#0BB5D0"/>
				<stop  offset="0.7178" style="stop-color:#A85093;stop-opacity:0.8"/>
				<stop  offset="1" style="stop-color:#1CACCC"/>
			</radialGradient>
			<path class="st12" d="M9.37,175.82c-20.8-92.47,129.45-288.26,368.77-282.75C862.79-95.76,1077.18,7.41,1456.36,7.66
				c96.9,0.09,190.68,55.85,243.3,101.92c220.31,192.88,27.71,291.89-1.41,380.39c-23,69.92-38.85,168.5,124.14,249.98
				c120.04,60.11,243.85,139.21,199.1,210.27c2.67,105.54-526.47,20.19-588.71,76.4c-6.21,64.88,92.23,95.5,0.44,129.74
				c-156.19,58.26-457.96-64.43-713.21-74.65c-216.24-8.66-633.95,31.82-470.53-206.89C213.53,863.47,71.83,755.88,45.74,631.03
				c-18.69-89.46,94.58-138.84,89.41-208.57C129.3,343.68-13.88,236.58,9.37,175.82z"/>
			
				<radialGradient id="SVGID_17_" cx="905.1561" cy="720.4235" r="665.3157" gradientTransform="matrix(-1.2317 0 0 1.3603 2133.8237 -442.3079)" gradientUnits="userSpaceOnUse">
				<stop  offset="0" style="stop-color:#4D2A6E"/>
				<stop  offset="0.1251" style="stop-color:#41528A"/>
				<stop  offset="0.4002" style="stop-color:#0BB5D0"/>
				<stop  offset="0.7178" style="stop-color:#A85093;stop-opacity:0.8"/>
				<stop  offset="1" style="stop-color:#1CACCC"/>
			</radialGradient>
			<path class="st13" d="M19.79,172.78C3.26,82.69,152.99-103.98,388.54-100.53c470.26,6.89,691.81,102.71,1061.91,103
				c96.1,0.11,188.14,53.54,241.08,96.23c239.49,193.11,64.24,305.7,23.94,391.66c-32.44,69.19-71.22,172.39,96.55,256.15
				c122.04,61.03,250.17,143.65,197.33,215.84c-0.71,100.59-509.22,22.48-582.17,76.16c-9.35,61.06,79.4,90.45-10.46,122.17
				c-159.19,56.18-455.74-59.92-704.25-72.18c-216.85-10.7-599.6,12.49-450.24-209.74c-46.71-5.36-205.11-113.62-228.74-240.5
				C16.33,546.1,150.89,500.38,150.07,429.8C149.16,350.98-8.91,237.64,19.79,172.78z"/>
			
				<radialGradient id="SVGID_18_" cx="907.2805" cy="724.1777" r="661.8014" gradientTransform="matrix(-1.2317 0 0 1.3603 2133.8237 -442.3079)" gradientUnits="userSpaceOnUse">
				<stop  offset="0" style="stop-color:#4D2A6E"/>
				<stop  offset="0.1251" style="stop-color:#41528A"/>
				<stop  offset="0.4002" style="stop-color:#0BB5D0"/>
				<stop  offset="0.7178" style="stop-color:#A85093;stop-opacity:0.8"/>
				<stop  offset="1" style="stop-color:#1CACCC"/>
			</radialGradient>
			<path class="st14" d="M30.2,169.74C17.94,82.03,167.24-100.46,398.93-94.13c455.7,12.45,684.58,91.08,1045.61,91.41
				c95.29,0.12,185.77,51.06,238.85,90.54c259.29,192.84,100.6,319.42,49.3,402.93c-42.02,68.39-103.59,176.28,68.97,262.32
				c124.05,61.96,256.48,148.09,195.56,221.42c-4.09,95.64-491.96,24.77-575.63,75.92c-12.49,57.25,66.53,85.33-21.36,114.59
				c-162.24,54.01-453.52-55.48-695.29-69.71c-217.47-12.79-565.26-6.84-429.94-212.59c-57.47,0.64-232.54-108.31-253.74-237.21
				C5.64,550.63,161.42,508.59,165,437.15C168.96,358.29-3.95,238.71,30.2,169.74z"/>
			
				<radialGradient id="SVGID_19_" cx="915.741" cy="727.9859" r="662.2205" gradientTransform="matrix(-1.2317 0 0 1.3603 2133.8237 -442.3079)" gradientUnits="userSpaceOnUse">
				<stop  offset="0" style="stop-color:#4D2A6E"/>
				<stop  offset="0.1251" style="stop-color:#41528A"/>
				<stop  offset="0.4002" style="stop-color:#0BB5D0"/>
				<stop  offset="0.7178" style="stop-color:#A85093;stop-opacity:0.8"/>
				<stop  offset="1" style="stop-color:#1CACCC"/>
			</radialGradient>
			<path class="st15" d="M40.61,166.71C32.62,81.38,181.36-92.26,409.33-87.72c441.36,8.78,677.35,79.45,1029.3,79.82
				c94.49,0.13,183.54,48.42,236.63,84.85c279.67,191.92,136.84,333.01,74.65,414.2c-51.7,67.49-135.97,180.17,41.38,268.5
				c126.05,62.88,262.8,152.53,193.78,227c-7.46,90.69-474.71,27.06-569.09,75.67c-15.64,53.43,53.63,80.13-32.26,107.01
				c-165.35,51.75-451.29-51.13-686.34-67.24c-218.09-14.94-530.92-26.16-409.65-215.44c-68.24,6.63-259.93-103-278.74-233.92
				c-14.02-97.57,162.9-135.92,170.94-208.22C188.7,365.6,1.02,239.78,40.61,166.71z"/>
			
				<radialGradient id="SVGID_20_" cx="924.1737" cy="731.6722" r="662.7272" gradientTransform="matrix(-1.2317 0 0 1.3603 2133.8237 -442.3079)" gradientUnits="userSpaceOnUse">
				<stop  offset="0" style="stop-color:#4D2A6E"/>
				<stop  offset="0.1251" style="stop-color:#41528A"/>
				<stop  offset="0.4002" style="stop-color:#0BB5D0"/>
				<stop  offset="0.7178" style="stop-color:#A85093;stop-opacity:0.8"/>
				<stop  offset="1" style="stop-color:#1CACCC"/>
			</radialGradient>
			<path class="st16" d="M51.03,163.67C47.3,80.72,195.47-78.4,419.73-81.32c427.03-5.55,670.12,67.82,1012.99,68.23
				c93.69,0.15,181.41,45.63,234.4,79.16c300.6,190.22,173.03,346.46,100,425.47c-61.44,66.47-168.34,184.06,13.79,274.67
				c128.05,63.81,269.11,156.97,192.01,232.57c-10.84,85.74-457.46,29.35-562.55,75.43c-18.78,49.61,40.7,74.86-43.16,99.44
				c-168.51,49.38-449.07-46.86-677.38-64.77c-218.72-17.15-496.57-45.49-389.36-218.3c-79,12.62-287.29-97.7-303.74-230.64
				C-15.67,559.66,182.31,525,194.86,451.84C208.39,372.9,5.99,240.85,51.03,163.67z"/>
			
				<radialGradient id="SVGID_21_" cx="932.5792" cy="735.1801" r="663.33" gradientTransform="matrix(-1.2317 0 0 1.3603 2133.8237 -442.3079)" gradientUnits="userSpaceOnUse">
				<stop  offset="0" style="stop-color:#4D2A6E"/>
				<stop  offset="0.1251" style="stop-color:#41528A"/>
				<stop  offset="0.4002" style="stop-color:#0BB5D0"/>
				<stop  offset="0.7178" style="stop-color:#A85093;stop-opacity:0.8"/>
				<stop  offset="1" style="stop-color:#1CACCC"/>
			</radialGradient>
			<path class="st17" d="M61.44,160.63C61.99,80.06,209.63-69.81,430.13-74.92c412.61-9.55,662.89,56.2,996.69,56.64
				c92.89,0.16,179.37,42.7,232.17,73.47c322.03,187.63,209.19,359.8,125.35,436.74c-71.19,65.34-200.71,187.96-13.79,280.84
				c130.06,64.73,275.43,161.41,190.24,238.15c-14.22,80.79-440.2,31.64-556.01,75.19c-21.92,45.79,27.74,69.52-54.06,91.86
				c-171.71,46.88-446.85-42.67-668.42-62.3c-219.34-19.43-462.23-64.82-369.07-221.15c-89.76,18.61-314.62-92.4-328.74-227.35
				c-10.78-102.99,208.2-133.99,225.3-207.99C228.03,380.19,10.95,241.91,61.44,160.63z"/>
			
				<radialGradient id="SVGID_22_" cx="940.9589" cy="738.5087" r="664.0198" gradientTransform="matrix(-1.2317 0 0 1.3603 2133.8237 -442.3079)" gradientUnits="userSpaceOnUse">
				<stop  offset="0" style="stop-color:#4D2A6E"/>
				<stop  offset="0.1251" style="stop-color:#41528A"/>
				<stop  offset="0.4002" style="stop-color:#0BB5D0"/>
				<stop  offset="0.7178" style="stop-color:#A85093;stop-opacity:0.8"/>
				<stop  offset="1" style="stop-color:#1CACCC"/>
			</radialGradient>
			<path class="st18" d="M71.85,157.6C76.67,79.41,223.78-61.18,440.52-68.51c398.19-13.47,655.66,44.57,980.38,45.05
				c92.09,0.17,177.37,39.64,229.95,67.78c343.89,184.03,245.37,373.02,150.7,448.01c-80.95,64.12-233.08,191.85-41.38,287.02
				c132.06,65.66,281.74,165.86,188.47,243.72c-17.6,75.84-422.95,33.93-549.47,74.95c-25.06,41.97,14.77,64.12-64.96,84.28
				c-174.95,44.25-444.62-38.56-659.46-59.83c-219.95-21.78-427.89-84.15-348.78-224C225.45,923.07-15.94,811.37-27.76,674.4
				c-9.12-105.71,230.79-133.05,252.47-207.87C247.63,387.46,15.92,242.98,71.85,157.6z"/>
			
				<radialGradient id="SVGID_23_" cx="949.3147" cy="741.6239" r="664.8007" gradientTransform="matrix(-1.2317 0 0 1.3603 2133.8237 -442.3079)" gradientUnits="userSpaceOnUse">
				<stop  offset="0" style="stop-color:#4D2A6E"/>
				<stop  offset="0.1251" style="stop-color:#41528A"/>
				<stop  offset="0.4002" style="stop-color:#0BB5D0"/>
				<stop  offset="0.7178" style="stop-color:#A85093;stop-opacity:0.8"/>
				<stop  offset="1" style="stop-color:#1CACCC"/>
			</radialGradient>
			<path class="st19" d="M82.27,154.56C91.35,78.75,237.93-52.51,450.92-62.11c383.77-17.3,648.43,32.94,964.08,33.45
				c91.28,0.18,175.39,36.46,227.72,62.09c366.15,179.31,281.58,386.17,176.06,459.28c-90.68,62.83-265.46,195.74-68.97,293.19
				c134.07,66.58,288.05,170.3,186.7,249.3c-20.98,70.88-405.7,36.22-542.93,74.7c-28.21,38.16,1.78,58.64-75.86,76.71
				c-178.22,41.47-442.38-34.52-650.51-57.36c-220.56-24.2-393.54-103.48-328.48-226.85C227.43,933-30.47,820.61-40.01,681.63
				c-7.45-108.42,253.34-132.14,279.65-207.75C267.19,394.7,20.89,244.05,82.27,154.56z"/>
			
				<radialGradient id="SVGID_24_" cx="957.6487" cy="744.478" r="665.6829" gradientTransform="matrix(-1.2317 0 0 1.3603 2133.8237 -442.3079)" gradientUnits="userSpaceOnUse">
				<stop  offset="0" style="stop-color:#4D2A6E"/>
				<stop  offset="0.1251" style="stop-color:#41528A"/>
				<stop  offset="0.4002" style="stop-color:#0BB5D0"/>
				<stop  offset="0.7178" style="stop-color:#A85093;stop-opacity:0.8"/>
				<stop  offset="1" style="stop-color:#1CACCC"/>
			</radialGradient>
			<path class="st20" d="M92.68,151.52C106.03,78.09,252.09-43.79,461.32-55.71c369.35-21.04,641.2,21.31,947.77,21.86
				c90.48,0.2,173.42,33.17,225.5,56.4c388.72,173.38,317.83,399.25,201.41,470.55c-100.39,61.48-297.83,199.63-96.55,299.36
				c136.07,67.51,294.37,174.74,184.92,254.88c-24.36,65.93-388.44,38.51-536.39,74.46c-31.35,34.34-11.22,53.1-86.76,69.13
				c-181.53,38.52-440.13-30.57-641.55-54.89c-221.16-26.71-359.2-122.81-308.19-229.7C229.42,942.93-44.97,829.86-52.26,688.86
				c-5.75-111.13,275.86-131.25,306.83-207.64C286.72,401.91,25.85,245.12,92.68,151.52z"/>
			
				<radialGradient id="SVGID_25_" cx="965.9628" cy="747.0026" r="666.6841" gradientTransform="matrix(-1.2317 0 0 1.3603 2133.8237 -442.3079)" gradientUnits="userSpaceOnUse">
				<stop  offset="0" style="stop-color:#4D2A6E"/>
				<stop  offset="0.1251" style="stop-color:#41528A"/>
				<stop  offset="0.4002" style="stop-color:#0BB5D0"/>
				<stop  offset="0.7178" style="stop-color:#A85093;stop-opacity:0.8"/>
				<stop  offset="1" style="stop-color:#1CACCC"/>
			</radialGradient>
			<path class="st21" d="M103.09,148.49C120.71,77.44,266.24-35.02,471.72-49.31c354.93-24.68,633.97,9.68,931.46,10.27
				c89.68,0.21,171.43,29.78,223.27,50.71c411.54,166.17,354.12,412.28,226.76,481.82c-110.07,60.1-330.2,203.52-124.14,305.54
				c138.08,68.43,300.68,179.18,183.15,260.45c-27.74,60.98-371.19,40.8-529.85,74.22c-34.49,30.52-24.23,47.5-97.66,61.55
				c-184.86,35.38-437.87-26.68-632.59-52.42c-221.74-29.31-324.86-142.14-287.9-232.55C231.41,952.86-59.45,839.11-64.51,696.09
				c-4.03-113.83,298.36-130.4,334.01-207.52C306.24,409.09,30.82,246.18,103.09,148.49z"/>
			
				<radialGradient id="SVGID_26_" cx="965.2642" cy="749.0975" r="673.3731" gradientTransform="matrix(-1.2317 0 0 1.3603 2133.8237 -442.3079)" gradientUnits="userSpaceOnUse">
				<stop  offset="0" style="stop-color:#4D2A6E"/>
				<stop  offset="0.1251" style="stop-color:#41528A"/>
				<stop  offset="0.4002" style="stop-color:#0BB5D0"/>
				<stop  offset="0.7178" style="stop-color:#A85093;stop-opacity:0.8"/>
				<stop  offset="1" style="stop-color:#1CACCC"/>
			</radialGradient>
			<path class="st22" d="M113.51,145.45c33.3-63.92,166.9-171.63,368.61-188.36c340.53-28.23,626.74-1.94,915.16-1.32
				c88.88,0.22,169.41,26.29,221.04,45.02c434.53,157.6,390.44,425.29,252.11,493.09c-119.72,58.68-362.57,207.42-151.73,311.71
				c140.08,69.36,307,183.62,181.38,266.03c-31.12,56.03-353.94,43.09-523.31,73.98c-37.64,26.7-37.24,41.84-108.56,53.98
				c-188.21,32.03-435.6-22.87-623.63-49.95c-222.3-32.02-290.51-161.46-267.61-235.4C233.39,962.8-73.91,848.37-76.76,703.32
				c-2.3-116.54,320.83-129.58,361.18-207.4C325.74,416.24,54.33,259.04,113.51,145.45z"/>
			
				<radialGradient id="SVGID_27_" cx="962.2158" cy="750.6144" r="681.7145" gradientTransform="matrix(-1.2317 0 0 1.3603 2133.8237 -442.3079)" gradientUnits="userSpaceOnUse">
				<stop  offset="0" style="stop-color:#4D2A6E"/>
				<stop  offset="0.1251" style="stop-color:#41528A"/>
				<stop  offset="0.4002" style="stop-color:#0BB5D0"/>
				<stop  offset="0.7178" style="stop-color:#A85093;stop-opacity:0.8"/>
				<stop  offset="1" style="stop-color:#1CACCC"/>
			</radialGradient>
			<path class="st23" d="M123.92,142.42C159.38,80.6,294.58-17.28,492.51-36.5c326.14-31.67,619.51-13.57,898.85-12.91
				c88.08,0.24,167.35,22.72,218.82,39.33c457.59,147.64,426.8,438.26,277.47,504.36c-129.34,57.25-394.95,211.31-179.32,317.88
				c142.09,70.28,313.31,188.06,179.61,271.6c-34.5,51.08-336.68,45.38-516.76,73.74c-40.78,22.88-50.25,36.12-119.46,46.4
				c-191.57,28.46-433.3-19.13-614.67-47.48c-222.84-34.84-256.17-180.79-247.32-238.25C235.38,972.73-88.35,857.63-89.01,710.55
				c-0.54-119.23,343.3-128.79,388.36-207.28C345.22,423.35,56.92,259.22,123.92,142.42z"/>
			
				<radialGradient id="SVGID_28_" cx="959.092" cy="751.349" r="690.3716" gradientTransform="matrix(-1.2317 0 0 1.3603 2133.8237 -442.3079)" gradientUnits="userSpaceOnUse">
				<stop  offset="0" style="stop-color:#4D2A6E"/>
				<stop  offset="0.1251" style="stop-color:#41528A"/>
				<stop  offset="0.4002" style="stop-color:#0BB5D0"/>
				<stop  offset="0.7178" style="stop-color:#A85093;stop-opacity:0.8"/>
				<stop  offset="1" style="stop-color:#1CACCC"/>
			</radialGradient>
			<path class="st24" d="M134.33,139.38C172,79.45,308.76-8.3,502.91-30.1c311.77-35.01,612.28-25.2,882.54-24.5
				c87.27,0.25,165.22,19.08,216.59,33.64c480.65,136.26,463.19,451.22,302.82,515.63c-138.94,55.8-427.32,215.2-206.9,324.06
				c144.09,71.21,302.99,169.42,177.84,277.18c-45.23,38.95-324.77,21.76-510.22,73.49c-46.12,12.87-63.25,30.34-130.36,38.83
				c-194.92,24.64-430.99-15.46-605.72-45.01c-223.35-37.78-221.83-200.12-227.02-241.1c-165.1,60.55-505.24-55.21-503.73-204.33
				c1.23-121.93,365.76-128.03,415.54-207.17C364.71,430.44,59.16,258.97,134.33,139.38z"/>
			
				<radialGradient id="SVGID_29_" cx="955.9181" cy="751.1529" r="699.3705" gradientTransform="matrix(-1.2317 0 0 1.3603 2133.8237 -442.3079)" gradientUnits="userSpaceOnUse">
				<stop  offset="0" style="stop-color:#4D2A6E"/>
				<stop  offset="0.1251" style="stop-color:#41528A"/>
				<stop  offset="0.4002" style="stop-color:#0BB5D0"/>
				<stop  offset="0.7178" style="stop-color:#A85093;stop-opacity:0.8"/>
				<stop  offset="1" style="stop-color:#1CACCC"/>
			</radialGradient>
			<path class="st25" d="M144.75,136.34C184.71,78.1,322.97,0.77,513.31-23.7c297.43-38.22,605.04-36.83,866.24-36.09
				c86.47,0.26,163.02,15.36,214.36,27.95c503.6,123.47,499.61,464.17,328.17,526.9c-148.51,54.34-459.69,219.09-234.49,330.23
				c146.09,72.14,313.32,177.92,176.06,282.76c-46.33,35.38-305.47,30.13-503.68,73.25c-48.34,10.52-76.23,24.51-141.26,31.25
				c-198.27,20.54-428.65-11.86-596.76-42.54c-223.82-40.86-187.49-219.45-206.73-243.95c-175.87,66.54-532.39-49.87-528.73-201.04
				c3.02-124.62,388.21-127.29,442.72-207.05C384.19,437.5,61.08,258.28,144.75,136.34z"/>
			
				<radialGradient id="SVGID_30_" cx="952.7131" cy="750.4105" r="708.56" gradientTransform="matrix(-1.2317 0 0 1.3603 2133.8237 -442.3079)" gradientUnits="userSpaceOnUse">
				<stop  offset="0" style="stop-color:#4D2A6E"/>
				<stop  offset="0.1251" style="stop-color:#41528A"/>
				<stop  offset="0.4002" style="stop-color:#0BB5D0"/>
				<stop  offset="0.7178" style="stop-color:#A85093;stop-opacity:0.8"/>
				<stop  offset="1" style="stop-color:#1CACCC"/>
			</radialGradient>
			<path class="st26" d="M155.16,133.31C197.52,76.54,337.2,9.93,523.7-17.29c283.12-41.33,597.81-48.46,849.93-47.69
				c85.67,0.28,160.74,11.58,212.14,22.26c526.34,109.3,536.06,477.11,353.52,538.17c-158.06,52.87-492.07,222.98-262.08,336.4
				c148.1,73.06,323.87,187.63,174.29,288.33c-47.69,32.11-286.65,38.89-497.14,73.01c-50.83,8.24-89.19,18.63-152.16,23.67
				c-201.58,16.15-426.28-8.32-587.8-40.08c-224.25-44.08-153.14-238.78-186.44-246.8c-186.63,72.53-559.53-44.53-553.73-197.75
				c4.82-127.3,410.66-126.58,469.89-206.93C403.68,444.53,62.75,257.15,155.16,133.31z"/>
			
				<radialGradient id="SVGID_31_" cx="949.5092" cy="749.5581" r="717.7651" gradientTransform="matrix(-1.2317 0 0 1.3603 2133.8237 -442.3079)" gradientUnits="userSpaceOnUse">
				<stop  offset="0" style="stop-color:#4D2A6E"/>
				<stop  offset="0.1251" style="stop-color:#41528A"/>
				<stop  offset="0.4002" style="stop-color:#0BB5D0"/>
				<stop  offset="0.7178" style="stop-color:#A85093;stop-opacity:0.8"/>
				<stop  offset="1" style="stop-color:#1CACCC"/>
			</radialGradient>
			<path class="st27" d="M165.57,130.27C210.44,74.78,351.46,19.21,534.1-10.89c268.87-44.31,590.58-60.09,833.62-59.28
				c84.87,0.29,158.37,7.76,209.91,16.57c548.79,93.81,572.42,489.71,378.87,549.44c-167.69,51.11-524.44,226.88-289.66,342.58
				c150.1,73.99,334.45,198.46,172.52,293.91c-49.37,29.1-268.32,47.84-490.6,72.77c-53.56,6.01-102.12,12.7-163.06,16.1
				c-204.85,11.42-423.88-4.85-578.84-37.61c-224.62-47.48-119.89-262.84-166.15-249.65c-204.31,58.23-586.4-39.17-578.73-194.46
				c6.85-129.97,433.12-125.9,497.07-206.81C423.16,451.54,64.23,255.6,165.57,130.27z"/>
			
				<radialGradient id="SVGID_32_" cx="946.2698" cy="748.6472" r="726.9974" gradientTransform="matrix(-1.2317 0 0 1.3603 2133.8237 -442.3079)" gradientUnits="userSpaceOnUse">
				<stop  offset="0" style="stop-color:#4D2A6E"/>
				<stop  offset="0.1251" style="stop-color:#41528A"/>
				<stop  offset="0.4002" style="stop-color:#0BB5D0"/>
				<stop  offset="0.7178" style="stop-color:#A85093;stop-opacity:0.8"/>
				<stop  offset="1" style="stop-color:#1CACCC"/>
			</radialGradient>
			<path class="st28" d="M1973.73,496.23c-177.12,49.93-556.81,230.77-317.25,348.75c152.11,74.91,344.89,210.26,170.75,299.48
				c-107.68,55.17-863.47,128.63-1227.91,45.91c-224.93-51.05-84.46-277.44-145.86-252.51c-208.16,84.52-613.78-33.82-603.73-191.18
				c8.47-132.65,455.58-125.23,524.25-206.7c68.67-81.47-308.4-286.34-198-412.77C315.48-32.52,1272.45-104.59,1569.51-64.48
				C2140.37,12.6,2178.51,438.5,1973.73,496.23z"/>
		</g>
	</g>
	<radialGradient id="SVGID_33_" cx="96.357" cy="581.1762" r="129.885" gradientUnits="userSpaceOnUse">
		<stop  offset="0" style="stop-color:#FFFFFF"/>
		<stop  offset="0.6867" style="stop-color:#FFFFFF;stop-opacity:0"/>
	</radialGradient>
	<circle class="st29" cx="96.36" cy="581.18" r="129.89"/>
	<radialGradient id="SVGID_34_" cx="1565.1014" cy="800.5093" r="158.7835" gradientUnits="userSpaceOnUse">
		<stop  offset="0" style="stop-color:#FFFFFF"/>
		<stop  offset="0.6867" style="stop-color:#FFFFFF;stop-opacity:0"/>
	</radialGradient>
	<circle class="st30" cx="1565.1" cy="800.51" r="158.78"/>
	<radialGradient id="SVGID_35_" cx="1801.4983" cy="182.5291" r="198.2791" gradientUnits="userSpaceOnUse">
		<stop  offset="0" style="stop-color:#FFFFFF"/>
		<stop  offset="0.6867" style="stop-color:#FFFFFF;stop-opacity:0"/>
	</radialGradient>
	<circle class="st31" cx="1801.5" cy="182.53" r="198.28"/>
</g>
<g id="TEXTS">
</g>
</svg>
